<?xml version="1.0" encoding="UTF-8"?>
<svg width="1080px" height="457px" viewBox="0 0 1080 457" version="1.1" xmlns="http://www.w3.org/2000/svg" xmlns:xlink="http://www.w3.org/1999/xlink">
    <!-- Generator: Sketch 62 (91390) - https://sketch.com -->
    <title>Group 7</title>
    <desc>Created with Sketch.</desc>
    <g id="Page-1" stroke="none" stroke-width="1" fill="none" fill-rule="evenodd">
        <g id="Group-7" transform="translate(0.000000, -5.000000)">
            <g id="Group-6" transform="translate(0.000000, 96.000000)">
                <circle id="Oval" stroke-opacity="0.349013535" stroke="#F6931D" fill="#007AFF" cx="60" cy="60" r="59.5"></circle>
                <text id="{-}" font-family="PingFangSC-Regular, PingFang SC" font-size="48" font-weight="normal" fill="#FFFFFF">
                    <tspan x="36" y="78">{ }</tspan>
                </text>
            </g>
            <circle id="Oval" stroke-opacity="0.349013535" stroke="#F6931D" fill="#007AFF" cx="787" cy="402" r="59.5"></circle>
            <text id="[-]" font-family="PingFangSC-Regular, PingFang SC" font-size="48" font-weight="normal" fill="#FFFFFF">
                <tspan x="755" y="419">[  ]</tspan>
            </text>
            <text id="aaaaaa-bbbbbb-cccccc" font-family="PingFangSC-Regular, PingFang SC" font-size="7" font-weight="normal" fill="#FFFFFF">
                <tspan x="775" y="390">aaaaaa</tspan>
                <tspan x="775" y="399">bbbbbb</tspan>
                <tspan x="775" y="408">cccccc</tspan>
                <tspan x="775" y="417">dddddd</tspan>
            </text>
            <circle id="Oval" stroke-opacity="0.349013535" stroke="#F6931D" fill="#007AFF" cx="540" cy="156" r="59.5"></circle>
            <g id="Group-2" transform="translate(502.000000, 128.000000)" stroke="#FFFFFF" stroke-width="3">
                <rect id="Rectangle" x="1.5" y="1.5" width="73" height="53"></rect>
                <rect id="Rectangle" x="1.5" y="22.5" width="73" height="32"></rect>
            </g>
            <g id="Group-5" transform="translate(240.000000, 96.000000)">
                <circle id="Oval" stroke-opacity="0.349013535" stroke="#F6931D" fill="#007AFF" cx="60" cy="60" r="59.5"></circle>
                <rect id="Rectangle" stroke="#FFFFFF" stroke-width="3" x="36.5" y="61.5" width="55" height="40"></rect>
                <g id="Group" transform="translate(40.000000, 8.000000)">
                    <line x1="14" y1="5" x2="35" y2="38" id="Line-2" stroke="#FFFFFF" stroke-width="2" stroke-linecap="square"></line>
                    <line x1="15" y1="5" x2="5.19230769" y2="20.8181818" id="Line-2" stroke="#FFFFFF" stroke-width="2" stroke-linecap="square"></line>
                    <line x1="26" y1="18" x2="16.1923077" y2="33.8181818" id="Line-2" stroke="#FFFFFF" stroke-width="2" stroke-linecap="square"></line>
                    <circle id="Oval" stroke-opacity="0.349013535" stroke="#F6931D" fill="#FFFFFF" cx="15" cy="5" r="4.5"></circle>
                    <circle id="Oval" stroke-opacity="0.349013535" stroke="#F6931D" fill="#FFFFFF" cx="5" cy="20" r="4.5"></circle>
                    <circle id="Oval" stroke-opacity="0.349013535" stroke="#F6931D" fill="#FFFFFF" cx="25" cy="22" r="4.5"></circle>
                    <circle id="Oval" stroke-opacity="0.349013535" stroke="#F6931D" fill="#FFFFFF" cx="18" cy="38" r="4.5"></circle>
                    <circle id="Oval" stroke-opacity="0.349013535" stroke="#F6931D" fill="#FFFFFF" cx="35" cy="38" r="4.5"></circle>
                </g>
            </g>
            <rect id="Rectangle" fill="#007AFF" x="5" y="247" width="595" height="215" rx="3"></rect>
            <circle id="Oval" stroke-opacity="0.349013535" stroke="#F6931D" fill="#007AFF" cx="780" cy="156" r="59.5"></circle>
            <g id="Group" transform="translate(46.000000, 314.000000)">
                <line x1="32" y1="12" x2="78" y2="84" id="Line-2" stroke="#FFFFFF" stroke-width="2" stroke-linecap="square"></line>
                <line x1="32" y1="12" x2="11.4038462" y2="46.6022727" id="Line-2" stroke="#FFFFFF" stroke-width="2" stroke-linecap="square"></line>
                <line x1="59" y1="40" x2="38.4038462" y2="74.6022727" id="Line-2" stroke="#FFFFFF" stroke-width="2" stroke-linecap="square"></line>
                <circle id="Oval" stroke-opacity="0.349013535" stroke="#F6931D" fill="#FFFFFF" cx="32.5" cy="11.5" r="11"></circle>
                <circle id="Oval" stroke-opacity="0.349013535" stroke="#F6931D" fill="#FFFFFF" cx="11.5" cy="46.5" r="11"></circle>
                <circle id="Oval" stroke-opacity="0.349013535" stroke="#F6931D" fill="#FFFFFF" cx="55.5" cy="47.5" r="11"></circle>
                <circle id="Oval" stroke-opacity="0.349013535" stroke="#F6931D" fill="#FFFFFF" cx="37.5" cy="83.5" r="11"></circle>
                <circle id="Oval" stroke-opacity="0.349013535" stroke="#F6931D" fill="#FFFFFF" cx="77.5" cy="82.5" r="11"></circle>
            </g>
            <g id="Group-3" transform="translate(267.000000, 304.000000)" fill="#FFFFFF">
                <path id="Line-2" d="M32,20.8666667 L32,30.225 L35.5642122,23.8882027 L35.8093429,23.4524149 L36.6809184,23.9426762 L36.4357878,24.378464 L31.9357878,32.378464 L31.5,33.1531978 L31.0642122,32.378464 L26.5642122,24.378464 L26.3190816,23.9426762 L27.1906571,23.4524149 L27.4357878,23.8882027 L31,30.225 L31,20.8666667 L32,20.8666667 Z" fill-rule="nonzero"></path>
                <path id="Line-2" d="M38.1036256,50.3005275 L38.401549,50.7020765 L42.5953488,56.3545893 L46.186,61.194 L45.2740486,53.9832525 L45.2112497,53.4872119 L46.2033309,53.3616141 L46.2661298,53.8576547 L47.4189641,62.9637501 L47.5306065,63.8456001 L46.7190035,63.4830757 L38.338287,59.7396027 L37.8817603,59.5356827 L38.2896002,58.6226293 L38.7461269,58.8265492 L45.384,61.791 L41.7922508,56.9504362 L37.598451,51.2979235 L37.3005275,50.8963744 L38.1036256,50.3005275 Z" fill-rule="nonzero"></path>
                <path id="Line-2" d="M16.1036256,82.3005275 L16.401549,82.7020765 L20.5953488,88.3545893 L24.186,93.194 L23.2740486,85.9832525 L23.2112497,85.4872119 L24.2033309,85.3616141 L24.2661298,85.8576547 L25.4189641,94.9637501 L25.5306065,95.8456001 L24.7190035,95.4830757 L16.338287,91.7396027 L15.8817603,91.5356827 L16.2896002,90.6226293 L16.7461269,90.8265492 L23.384,93.791 L19.7922508,88.9504362 L15.598451,83.2979235 L15.3005275,82.8963744 L16.1036256,82.3005275 Z" fill-rule="nonzero"></path>
                <path id="Line-2" d="M22.6438559,49.8882481 L23.5034631,50.3992035 L23.2479854,50.8290071 L19.8013363,56.6274875 L16.694,61.853 L22.9964968,58.2276841 L23.429881,57.9783286 L23.928592,58.8450969 L23.4952079,59.0944524 L15.5393324,63.6720113 L14.7688717,64.11531 L14.7901197,63.2266751 L15.00953,54.050518 L15.021482,53.5506609 L16.0211963,53.574565 L16.0092442,54.0744221 L15.834,61.343 L18.941729,56.1165321 L22.3883782,50.3180517 L22.6438559,49.8882481 Z" fill-rule="nonzero"></path>
                <path id="Line-2" d="M47.6438559,82.8882481 L48.5034631,83.3992035 L48.2479854,83.8290071 L44.8013363,89.6274875 L41.694,94.853 L47.9964968,91.2276841 L48.429881,90.9783286 L48.928592,91.8450969 L48.4952079,92.0944524 L40.5393324,96.6720113 L39.7688717,97.11531 L39.7901197,96.2266751 L40.00953,87.050518 L40.021482,86.5506609 L41.0211963,86.574565 L41.0092442,87.0744221 L40.834,94.343 L43.941729,89.1165321 L47.3883782,83.3180517 L47.6438559,82.8882481 Z" fill-rule="nonzero"></path>
                <circle id="Oval" stroke-opacity="0.349013535" stroke="#F6931D" cx="31.5" cy="10.5" r="10"></circle>
                <circle id="Oval" stroke-opacity="0.349013535" stroke="#F6931D" cx="33.5" cy="104.5" r="10"></circle>
                <circle id="Oval" stroke-opacity="0.349013535" stroke="#F6931D" cx="31.5" cy="41.5" r="10"></circle>
                <circle id="Oval" stroke-opacity="0.349013535" stroke="#F6931D" cx="10.5" cy="73.5" r="10"></circle>
                <circle id="Oval" stroke-opacity="0.349013535" stroke="#F6931D" cx="51.5" cy="73.5" r="10"></circle>
                <path id="Line-3" d="M55.7451306,13.0642122 L56.1809184,13.3093429 L55.6906571,14.1809184 L55.2548694,13.9357878 L47.2548694,9.43578777 L46.4801356,9 L47.2548694,8.56421223 L55.2548694,4.06421223 L55.6906571,3.81908161 L56.1809184,4.69065715 L55.7451306,4.93578777 L49.406,8.5 L66.5,8.5 L66.5,105.116987 L66.0104579,105.127228 L48.1971143,105.499891 L47.6972237,105.510349 L47.6763079,104.510567 L48.1761985,104.500109 L65.5,104.137 L65.5,9.5 L49.41,9.5 L55.7451306,13.0642122 Z" fill-rule="nonzero"></path>
            </g>
            <g id="Group-4" transform="translate(452.000000, 301.000000)" fill="#FFFFFF">
                <path id="Line-2" d="M11,24 L11,38.091 L14.5642122,31.7548694 L14.8093429,31.3190816 L15.6809184,31.8093429 L15.4357878,32.2451306 L10.9357878,40.2451306 L10.5,41.0198644 L10.0642122,40.2451306 L5.56421223,32.2451306 L5.31908161,31.8093429 L6.19065715,31.3190816 L6.43578777,31.7548694 L10,38.091 L10,24 L11,24 Z" fill-rule="nonzero"></path>
                <path id="Line-2" d="M11.5,65.8666667 L11.5,79.958 L15.0642122,73.621536 L15.3093429,73.1857483 L16.1809184,73.6760095 L15.9357878,74.1117973 L11.4357878,82.1117973 L11,82.8865311 L10.5642122,82.1117973 L6.06421223,74.1117973 L5.81908161,73.6760095 L6.69065715,73.1857483 L6.93578777,73.621536 L10.5,79.958 L10.5,65.8666667 L11.5,65.8666667 Z" fill-rule="nonzero"></path>
                <circle id="Oval" stroke-opacity="0.349013535" stroke="#F6931D" cx="10.5" cy="10.5" r="10"></circle>
                <circle id="Oval" stroke-opacity="0.349013535" stroke="#F6931D" cx="10.5" cy="96.5" r="10"></circle>
                <circle id="Oval" stroke-opacity="0.349013535" stroke="#F6931D" cx="10.5" cy="53.5" r="10"></circle>
                <circle id="Oval" stroke-opacity="0.349013535" stroke="#F6931D" cx="45.5" cy="53.5" r="10"></circle>
                <circle id="Oval" stroke-opacity="0.349013535" stroke="#F6931D" cx="45.5" cy="96.5" r="10"></circle>
                <circle id="Oval" stroke-opacity="0.349013535" stroke="#F6931D" cx="80.5" cy="55.5" r="10"></circle>
                <path id="Line-4" d="M24.1086873,13.3012961 L24.4036956,13.7049917 L39.0152253,33.6997166 L42.572,38.568 L41.7116533,31.3486977 L41.6524476,30.8522153 L42.6454122,30.7338039 L42.7046179,31.2302862 L43.7914906,40.3444898 L43.8967452,41.227125 L43.0877883,40.8587339 L34.7343955,37.0546795 L34.2793572,36.8474595 L34.6937973,35.9373829 L35.1488356,36.1446029 L41.765,39.157 L38.2078342,34.2897332 L23.5963044,14.2950083 L23.3012961,13.8913127 L24.1086873,13.3012961 Z" fill-rule="nonzero"></path>
                <path id="Line-4" d="M25.8093429,48.3190816 L26.2451306,48.5642122 L34.2451306,53.0642122 L35.0198644,53.5 L34.2451306,53.9357878 L26.2451306,58.4357878 L25.8093429,58.6809184 L25.3190816,57.8093429 L25.7548694,57.5642122 L32.091,54 L21,54 L21,53 L32.091,53 L25.7548694,49.4357878 L25.3190816,49.1906571 L25.8093429,48.3190816 Z" fill-rule="nonzero"></path>
                <path id="Line-4" d="M70.0527864,64.2763932 L70.2763932,63.8291796 L71.1708204,64.2763932 L70.9472136,64.7236068 L62.2810079,82.0560182 L59.576,87.464 L65.5988696,83.3901155 L66.0130113,83.1099609 L66.5733207,83.9382443 L66.159179,84.218399 L58.5565479,89.3613553 L57.820296,89.8594081 L57.776987,88.9715749 L57.3297734,79.8036962 L57.3054122,79.30429 L58.3042245,79.2555674 L58.3285858,79.7549736 L58.682,87.016 L70.0527864,64.2763932 Z" fill-rule="nonzero"></path>
                <path id="Line-4" d="M60.3093429,48.8190816 L60.7451306,49.0642122 L68.7451306,53.5642122 L69.5198644,54 L68.7451306,54.4357878 L60.7451306,58.9357878 L60.3093429,59.1809184 L59.8190816,58.3093429 L60.2548694,58.0642122 L66.589,54.5 L55.5,54.5 L55.5,53.5 L66.593,53.5 L60.2548694,49.9357878 L59.8190816,49.6906571 L60.3093429,48.8190816 Z" fill-rule="nonzero"></path>
            </g>
            <circle id="Oval" stroke-opacity="0.349013535" stroke="#F6931D" fill="#007AFF" cx="1020" cy="156" r="59.5"></circle>
            <circle id="Oval" stroke-opacity="0.349013535" stroke="#F6931D" fill="#007AFF" cx="1020" cy="156" r="59.5"></circle>
            <circle id="Oval" stroke-opacity="0.349013535" stroke="#F6931D" fill="#007AFF" cx="1020" cy="156" r="59.5"></circle>
            <text id="Source-Code-/-Binary" font-family="HelveticaNeue, Helvetica Neue" font-size="24" font-weight="normal" fill="#000000">
                <tspan x="0" y="23">Source</tspan>
                <tspan x="0" y="51">Code / Binary</tspan>
            </text>
            <text id="Model-Construction" font-family="HelveticaNeue, Helvetica Neue" font-size="24" font-weight="normal" fill="#000000">
                <tspan x="240" y="23">Model</tspan>
                <tspan x="240" y="51">Construction</tspan>
            </text>
            <text id="Analysis" font-family="HelveticaNeue, Helvetica Neue" font-size="24" font-weight="normal" fill="#000000">
                <tspan x="720" y="23">Analysis</tspan>
            </text>
            <text id="Model-Extraction" font-family="HelveticaNeue, Helvetica Neue" font-size="24" font-weight="normal" fill="#000000">
                <tspan x="480" y="23">Model</tspan>
                <tspan x="480" y="51">Extraction</tspan>
            </text>
            <text id="Patterns-Knowledge" font-family="HelveticaNeue, Helvetica Neue" font-size="24" font-weight="normal" fill="#000000">
                <tspan x="892" y="384">Patterns</tspan>
                <tspan x="892" y="412">Knowledge</tspan>
            </text>
            <text id="Result" font-family="HelveticaNeue, Helvetica Neue" font-size="24" font-weight="normal" fill="#000000">
                <tspan x="960" y="23">Result</tspan>
            </text>
            <polygon id="Triangle" fill="#007AFF" points="301.5 232 309 247 294 247"></polygon>
            <text id="AST" font-family="HelveticaNeue, Helvetica Neue" font-size="24" font-weight="normal" fill="#FFFFFF">
                <tspan x="68" y="287">AST</tspan>
            </text>
            <text id="CFG" font-family="HelveticaNeue, Helvetica Neue" font-size="24" font-weight="normal" fill="#FFFFFF">
                <tspan x="278" y="287">CFG</tspan>
            </text>
            <text id="CallGraph" font-family="HelveticaNeue, Helvetica Neue" font-size="24" font-weight="normal" fill="#FFFFFF">
                <tspan x="448" y="287">CallGraph</tspan>
            </text>
            <line x1="199" y1="288" x2="199" y2="434" id="Line" stroke="#FFFFFF" fill="#FFFFFF" stroke-linecap="square"></line>
            <line x1="400" y1="288" x2="400" y2="434" id="Line" stroke="#FFFFFF" fill="#FFFFFF" stroke-linecap="square"></line>
            <path id="Line-5" d="M192.66305,144.425497 L216.75,156.25 L192.838228,168.424858 L192.765,158.425 L148.264598,158.749947 L146.264651,158.764545 L146.235455,154.764651 L148.235402,154.750053 L192.736,154.425 L192.66305,144.425497 Z" fill="#979797" fill-rule="nonzero"></path>
            <path id="Line-5" d="M432.66305,144.425497 L456.75,156.25 L432.838228,168.424858 L432.765,158.425 L388.264598,158.749947 L386.264651,158.764545 L386.235455,154.764651 L388.235402,154.750053 L432.736,154.425 L432.66305,144.425497 Z" fill="#979797" fill-rule="nonzero"></path>
            <path id="Line-5" d="M672.66305,145.425497 L696.75,157.25 L672.838228,169.424858 L672.765,159.425 L628.264598,159.749947 L626.264651,159.764545 L626.235455,155.764651 L628.235402,155.750053 L672.736,155.425 L672.66305,145.425497 Z" fill="#979797" fill-rule="nonzero"></path>
            <path id="Line-5" d="M912.66305,146.425497 L936.75,158.25 L912.838228,170.424858 L912.765,160.425 L868.264598,160.749947 L866.264651,160.764545 L866.235455,156.764651 L868.235402,156.750053 L912.736,156.425 L912.66305,146.425497 Z" fill="#979797" fill-rule="nonzero"></path>
            <path id="Line-5" d="M780,232 L792,256 L782,256 L782,326 L778,326 L778,256 L768,256 L780,232 Z" fill="#979797" fill-rule="nonzero"></path>
            <g id="analysis-svgrepo-com" transform="translate(749.000000, 122.000000)" fill-rule="nonzero">
                <path d="M57,0 L5,0 C2.243,0 0,2.243 0,5 L0,41 C0,43.757 2.243,46 5,46 L17,46 L17,50 L15,50 L15,52 L26,52 L26,57 C26,59.757 28.243,62 31,62 C33.757,62 36,59.757 36,57 L36,52 L47,52 L47,50 L45,50 L45,46 L57,46 C59.757,46 62,43.757 62,41 L62,5 C62,2.243 59.757,0 57,0 Z M26,50 L19,50 L19,46 L26,46 L26,50 Z M26,44 L5,44 C3.346,44 2,42.654 2,41 L2,40 L26,40 L26,44 Z M34,57 C34,58.654 32.654,60 31,60 C29.346,60 28,58.654 28,57 L28,35.708 C28.973,35.894 29.974,36 31,36 C32.026,36 33.027,35.894 34,35.708 L34,57 Z M31,34 C23.28,34 17,27.72 17,20 C17,12.28 23.28,6 31,6 C38.72,6 45,12.28 45,20 C45,27.72 38.72,34 31,34 Z M43,50 L36,50 L36,46 L43,46 L43,50 Z M60,41 C60,42.654 58.654,44 57,44 L36,44 L36,40 L60,40 L60,41 Z M60,38 L36,38 L36,35.189 C42.379,33.083 47,27.075 47,20 C47,11.178 39.822,4 31,4 C22.178,4 15,11.178 15,20 C15,27.075 19.621,33.083 26,35.189 L26,38 L2,38 L2,5 C2,3.346 3.346,2 5,2 L57,2 C58.654,2 60,3.346 60,5 L60,38 Z" id="Shape" fill="#FFFFFF"></path>
                <rect id="Rectangle" fill="#000000" x="49" y="19" width="2" height="2"></rect>
                <rect id="Rectangle" fill="#000000" x="53" y="19" width="2" height="2"></rect>
                <rect id="Rectangle" fill="#000000" x="11" y="19" width="2" height="2"></rect>
                <rect id="Rectangle" fill="#000000" x="7" y="19" width="2" height="2"></rect>
                <path d="M39,21.184 L39,18.815 C40.161,18.401 41,17.301 41,15.999 C41,14.345 39.654,12.999 38,12.999 C37.254,12.999 36.579,13.283 36.054,13.735 L33.947,12.531 C33.977,12.359 34,12.182 34,12 C34,10.346 32.654,9 31,9 C29.346,9 28,10.346 28,12 C28,12.182 28.023,12.359 28.054,12.532 L25.947,13.736 C25.421,13.284 24.746,13 24,13 C22.346,13 21,14.346 21,16 C21,17.302 21.839,18.402 23,18.816 L23,21.185 C21.839,21.599 21,22.699 21,24.001 C21,25.655 22.346,27.001 24,27.001 C24.746,27.001 25.421,26.717 25.946,26.265 L28.053,27.469 C28.023,27.641 28,27.818 28,28 C28,29.654 29.346,31 31,31 C32.654,31 34,29.654 34,28 C34,27.818 33.977,27.641 33.946,27.468 L36.053,26.264 C36.579,26.716 37.254,27 38,27 C39.654,27 41,25.654 41,24 C41,22.698 40.161,21.598 39,21.184 Z M38,15 C38.552,15 39,15.448 39,16 C39,16.552 38.552,17 38,17 C37.448,17 37,16.552 37,16 C37,15.448 37.448,15 38,15 Z M31,11 C31.552,11 32,11.448 32,12 C32,12.552 31.552,13 31,13 C30.448,13 30,12.552 30,12 C30,11.448 30.448,11 31,11 Z M24,15 C24.552,15 25,15.448 25,16 C25,16.552 24.552,17 24,17 C23.448,17 23,16.552 23,16 C23,15.448 23.448,15 24,15 Z M24,25 C23.448,25 23,24.552 23,24 C23,23.448 23.448,23 24,23 C24.552,23 25,23.448 25,24 C25,24.552 24.552,25 24,25 Z M31,29 C30.448,29 30,28.552 30,28 C30,27.448 30.448,27 31,27 C31.552,27 32,27.448 32,28 C32,28.552 31.552,29 31,29 Z M35,24.001 C35,24.183 35.023,24.36 35.054,24.533 L32.947,25.737 C32.421,25.284 31.746,25 31,25 C30.254,25 29.579,25.284 29.054,25.736 L26.947,24.532 C26.977,24.359 27,24.182 27,24 C27,22.698 26.161,21.598 25,21.184 L25,18.815 C26.161,18.401 27,17.301 27,15.999 C27,15.817 26.977,15.64 26.946,15.467 L29.053,14.263 C29.579,14.716 30.254,15 31,15 C31.746,15 32.421,14.716 32.946,14.264 L35.053,15.468 C35.023,15.641 35,15.818 35,16 C35,17.302 35.839,18.402 37,18.816 L37,21.185 C35.839,21.599 35,22.699 35,24.001 Z M38,25 C37.448,25 37,24.552 37,24 C37,23.448 37.448,23 38,23 C38.552,23 39,23.448 39,24 C39,24.552 38.552,25 38,25 Z" id="Shape" fill="#FFFFFF"></path>
            </g>
            <g id="dashboard" transform="translate(983.000000, 127.000000)" fill="#FFFFFF" fill-rule="nonzero">
                <path d="M71.024898,49.3094584 C62.4544898,49.2717485 53.8765306,49.2868325 45.3061224,49.2868325 L43.9469388,49.2868325 C44.0677551,51.0290296 44.2263265,52.695807 44.2942857,54.3701263 C44.384898,56.5271323 45.3967347,58.0355281 47.2769388,59.0386113 C48.0395918,59.4458781 48.7720408,59.9134808 49.5044898,60.3735415 C49.7234694,60.5092972 49.957551,60.6676787 50.1085714,60.8713122 C50.5238776,61.4445026 50.2520408,61.9724411 49.5346939,61.987525 C48.4246939,62.010151 47.3222449,61.995067 46.2122449,61.995067 C39.0840816,61.995067 31.9559184,61.995067 24.8277551,61.987525 C24.412449,61.987525 23.8838776,62.1157387 23.7404082,61.5500903 C23.6044898,60.9995258 23.9820408,60.6601367 24.42,60.4037095 C25.3714286,59.838061 26.3228571,59.2724126 27.2667347,58.6992222 C28.7240816,57.8092687 29.5244898,56.5120483 29.6528571,54.8075611 C29.7887755,53.0125701 29.9246939,51.2100371 30.0681633,49.2943745 L29.1318367,49.2943745 C20.342449,49.2943745 11.5530612,49.2943745 2.76367347,49.2943745 C0.845714286,49.2943745 0,48.4496728 0,46.5189262 C0,32.9282801 0,16.2605066 0,2.66986055 C0,0.935205391 0.891020408,0.0226259369 2.60510204,0.0226259369 C25.4091837,0.0226259369 48.2132653,0.0301679158 71.0173469,0 C72.4369388,0 73.4336735,0.437434779 74,1.74973912 L74,47.5597193 C73.4412245,48.8644817 72.4444898,49.3170004 71.024898,49.3094584 Z M70.4887755,5.07575184 L3.51877551,5.07575184 L3.51877551,43.8641496 L70.4887755,43.8641496 L70.4887755,5.07575184 Z M8.1022449,32.5210133 C8.1022449,31.6612277 8.10979592,30.7939001 8.1022449,29.9265725 C8.09469388,29.2779623 8.38163265,28.9310313 9.04612245,28.9310313 C10.0277551,28.9310313 11.0169388,28.9385733 11.9985714,28.9310313 C12.6630612,28.9234893 12.965102,29.2779623 12.9726531,29.9114885 C12.9802041,31.6838536 12.9802041,33.4637606 12.9726531,35.2361257 C12.9726531,35.8771939 12.6555102,36.209041 11.9910204,36.201499 C11.0320408,36.193957 10.0655102,36.209041 9.10653061,36.193957 C8.38918367,36.186415 8.11734694,35.8998198 8.10979592,35.1757899 C8.09469388,34.2933783 8.1022449,33.4034248 8.1022449,32.5210133 L8.1022449,32.5210133 Z M22.1244898,31.2916707 C22.1244898,30.0397022 22.1169388,28.7952757 22.1244898,27.5433071 C22.1320408,26.7740253 22.3887755,26.517598 23.1665306,26.510056 C24.1028571,26.5025141 25.0391837,26.5025141 25.9830612,26.510056 C26.7079592,26.517598 26.994898,26.7815673 26.994898,27.5131392 C27.01,30.0849541 27.002449,32.6492269 26.994898,35.2210417 C26.994898,35.854568 26.6777551,36.201499 26.0132653,36.193957 C25.0542857,36.186415 24.0877551,36.201499 23.1287755,36.186415 C22.4114286,36.1788731 22.1320408,35.8922779 22.1244898,35.1757899 C22.1169388,33.8861115 22.1244898,32.5888911 22.1244898,31.2916707 Z M19.964898,30.1302059 C19.964898,31.7894413 19.972449,33.4486767 19.964898,35.1003701 C19.964898,35.9375297 19.7232653,36.1788731 18.9002041,36.193957 C17.9865306,36.201499 17.0728571,36.201499 16.1591837,36.193957 C15.4116327,36.186415 15.1322449,35.9450717 15.1246939,35.2210417 C15.1095918,31.8346932 15.1095918,28.4483446 15.1246939,25.0544541 C15.1246939,24.3228821 15.4040816,24.0815388 16.1516327,24.0739968 C17.0879592,24.0664548 18.0318367,24.0664548 18.9681633,24.0739968 C19.6930612,24.0815388 19.9573469,24.3530501 19.9573469,25.084622 C19.972449,26.7664833 19.964898,28.4483446 19.964898,30.1302059 Z M63.2322449,16.9015748 C60.1967347,19.1717105 57.1989796,21.4192202 54.1106122,23.7270658 L54.1106122,12.0294564 C56.8742857,11.7579452 61.6163265,14.2694242 63.2322449,16.9015748 Z M29.1469388,28.9838251 C29.1469388,26.9399488 29.1469388,24.8960725 29.1469388,22.8521962 C29.1469388,21.856655 29.3810204,21.6379376 30.3853061,21.6303956 C31.2310204,21.6303956 32.0691837,21.6228537 32.914898,21.6303956 C33.6926531,21.6379376 33.9795918,21.9019069 33.9795918,22.6485628 C33.9871429,26.8343611 33.9871429,31.0126175 33.9795918,35.1984158 C33.9795918,35.9149038 33.6926531,36.1788731 32.9602041,36.193957 C32.0238776,36.209041 31.08,36.201499 30.1436735,36.193957 C29.4263265,36.186415 29.1544898,35.9224458 29.1469388,35.1833318 C29.1469388,33.1168296 29.1544898,31.0503274 29.1469388,28.9838251 L29.1469388,28.9838251 Z M24.5030612,21.3287165 C26.7608163,18.7644436 28.9959184,16.2303387 31.3593878,13.5529362 C30.3173469,13.5529362 29.4640816,13.5378522 28.6108163,13.5604782 C28.0369388,13.5755621 27.5914286,13.4171806 27.5385714,12.7685704 C27.4932653,12.2481738 27.9161224,11.9464947 28.6485714,11.9464947 C30.0681633,11.9464947 31.4877551,11.9389527 32.9073469,11.9464947 C33.7379592,11.9540366 33.9871429,12.187838 33.9871429,13.0174557 C33.9948761,14.4805996 33.9795918,15.9512855 33.9948761,17.4144294 C34.0022449,17.9800778 33.7757143,18.3948867 33.1942857,18.3948867 C32.6128571,18.3948867 32.3712245,17.9951618 32.3787755,17.4219714 C32.3863265,16.6376056 32.3787755,15.8532398 32.3787755,14.8727825 C32.0314286,15.2498814 31.7897959,15.4987668 31.5632653,15.762736 C29.5244898,18.0705816 27.4932653,20.3859691 25.4544898,22.6862727 C24.8126531,23.4103027 24.5332653,23.4329286 23.7630612,22.8220283 C21.7091837,21.1929609 19.6628571,19.5563514 17.5712245,17.8820321 C17.374898,18.0554976 17.1785714,18.2138792 16.9897959,18.3948867 C14.6414286,20.6046865 12.2930612,22.8069444 9.94469388,25.0167442 C9.77102041,25.1826677 9.60489796,25.3561333 9.40857143,25.4994309 C9.02346939,25.7784841 8.56285714,25.7860261 8.33632653,25.3863012 C8.18530612,25.1223319 8.26081633,24.6924391 8.32877551,24.3530501 C8.36653061,24.1795845 8.61571429,24.0438289 8.77428571,23.8929893 C11.4020408,21.4192202 14.0297959,18.9454511 16.657551,16.479224 C17.3597959,15.8230719 17.5712245,15.8155299 18.3187755,16.4113462 C20.1612245,17.8820321 22.0036735,19.352718 23.8461224,20.8234039 C24.057551,20.9893274 24.2689796,21.147709 24.5030612,21.3287165 Z M60.7404082,34.6931032 C58.7242857,31.5707239 56.7081633,28.4483446 54.6618367,25.2882554 C57.8408163,22.9125321 60.9669388,20.5745186 64.1006122,18.2289631 C67.2871429,22.9879519 66.3055102,30.808984 60.7404082,34.6931032 Z M52.4720408,12.91941 C52.4720408,15.2574234 52.4720408,17.5351011 52.4720408,19.8203207 C52.4720408,21.2608387 52.4493878,22.7088986 52.4871429,24.1494166 C52.4946939,24.5114316 52.6004082,24.9111565 52.7967347,25.2128357 C54.5863265,28.0335358 56.4136735,30.83161 58.2183673,33.6372261 C58.4373469,33.9766152 58.6563265,34.3160043 58.8753061,34.6553933 C55.6585714,36.6992696 50.4332653,36.9330709 46.3859184,34.0067831 C42.2706122,31.0352434 40.5263265,25.808652 42.0516327,21.0194954 C43.5165306,16.3962623 47.8810204,12.9797458 52.4720408,12.91941 Z" id="Shape"></path>
            </g>
        </g>
    </g>
</svg>